<svg width="496" height="496" viewBox="0 0 496 496" fill="none" xmlns="http://www.w3.org/2000/svg">
<path d="M248 0C111.033 0 0 111.033 0 248C0 384.967 111.033 496 248 496C384.967 496 496 384.967 496 248C495.841 111.099 384.901 0.159 248 0ZM248 480C119.87 480 16 376.13 16 248C16 119.87 119.87 16 248 16C376.13 16 480 119.87 480 248C479.859 376.072 376.072 479.859 248 480Z" fill="url(#paint0_linear)"/>
<path d="M361.136 134.864C358.012 131.741 352.948 131.741 349.824 134.864L248 236.688L146.176 134.864C143.107 131.686 138.042 131.598 134.864 134.667C131.686 137.736 131.598 142.801 134.667 145.979C134.731 146.046 134.797 146.111 134.864 146.176L236.688 248L134.864 349.824C131.686 352.893 131.598 357.958 134.668 361.136C137.737 364.314 142.802 364.402 145.98 361.332C146.047 361.268 146.112 361.202 146.176 361.136L248 259.312L349.824 361.136C353.002 364.206 358.066 364.118 361.136 360.94C364.131 357.84 364.131 352.924 361.136 349.824L259.312 248L361.136 146.176C364.259 143.052 364.259 137.988 361.136 134.864Z" fill="url(#paint1_linear)"/>
<defs>
<linearGradient id="paint0_linear" x1="248" y1="0" x2="248" y2="496" gradientUnits="userSpaceOnUse">
<stop stop-color="#E31111" stop-opacity="0.85"/>
<stop offset="1" stop-color="#009BFF"/>
</linearGradient>
<linearGradient id="paint1_linear" x1="247.95" y1="132.422" x2="247.95" y2="363.578" gradientUnits="userSpaceOnUse">
<stop stop-color="#E31111" stop-opacity="0.85"/>
<stop offset="1" stop-color="#009BFF"/>
</linearGradient>
</defs>
</svg>
