<svg width="25" height="25" viewBox="0 0 25 25" fill="none" xmlns="http://www.w3.org/2000/svg">
<g clip-path="url(#clip0)">
<path d="M17.669 11.8839C17.1079 11.8851 16.6174 12.1832 16.3421 12.6287V12.1611C16.3421 11.2967 15.6365 10.5494 14.7734 10.5513C14.2123 10.5526 13.7218 10.8507 13.4465 11.296V10.9844C13.4465 10.1057 12.7286 9.35946 11.8514 9.37581C11.0008 9.39179 10.3161 10.0874 10.3161 10.9432V11.4012C10.0402 10.9548 9.54834 10.6565 8.98566 10.6565C8.22913 10.6565 7.59801 11.1941 7.45219 11.9087C7.45219 12.5478 7.45219 16.6992 7.45219 17.3772C7.45219 17.8108 7.07236 18.1571 6.62854 18.1C6.26171 18.0528 5.99656 17.7222 5.99656 17.3518V15.9116C5.99656 15.6638 5.69087 15.547 5.52606 15.7319L4.10062 17.3313C3.54355 17.9564 3.57573 18.9099 4.17372 19.4958L8.26634 23.5065C8.98462 24.4152 10.0946 25 11.339 25H15.0923C17.3818 25 19.2377 23.1411 19.2377 20.848V13.4936C19.2377 12.6292 18.5321 11.8821 17.669 11.8839Z" fill="white"/>
<path d="M12.8331 7.69567C13.2264 7.69567 13.5451 7.37647 13.5451 6.98253V0.713134C13.5451 0.319199 13.2264 0 12.8331 0C12.4398 0 12.1211 0.319199 12.1211 0.713134V6.98253C12.1211 7.37637 12.4399 7.69567 12.8331 7.69567Z" fill="white"/>
<path d="M9.35454 7.30801C9.53416 7.65859 9.96336 7.79675 10.3131 7.61694C10.663 7.43704 10.8011 7.00726 10.6215 6.65687L8.43235 2.38435C8.25274 2.03386 7.82363 1.89542 7.4738 2.07542C7.12387 2.25532 6.98584 2.6851 7.16536 3.03549L9.35454 7.30801Z" fill="white"/>
<path d="M4.72386 6.95413L7.06998 8.87569C7.37415 9.12481 7.82281 9.08021 8.07191 8.77509C8.32083 8.47015 8.27583 8.02088 7.97147 7.77157L5.62546 5.85C5.32119 5.60088 4.87253 5.64586 4.62352 5.9506C4.3746 6.25554 4.4195 6.70481 4.72386 6.95413Z" fill="white"/>
<path d="M21.0966 5.95056C20.8478 5.64562 20.3991 5.60065 20.0947 5.84996L17.7486 7.77152C17.4442 8.02083 17.3992 8.47011 17.6481 8.77504C17.8971 9.08008 18.3458 9.12477 18.6501 8.87564L20.9962 6.95408C21.3006 6.70477 21.3456 6.2555 21.0966 5.95056Z" fill="white"/>
<path d="M15.3532 7.61695C15.7029 7.79685 16.1321 7.6585 16.3117 7.30802L18.5009 3.0354C18.6805 2.68511 18.5424 2.25523 18.1925 2.07533C17.8429 1.89543 17.4136 2.03368 17.2339 2.38426L15.0448 6.65688C14.8652 7.00727 15.0033 7.43715 15.3532 7.61695Z" fill="white"/>
</g>
<defs>
<clipPath id="clip0">
<rect width="24.9605" height="25" fill="white"/>
</clipPath>
</defs>
</svg>
