<svg width="946" height="581" viewBox="0 0 946 581" fill="none" xmlns="http://www.w3.org/2000/svg">
<g clip-path="url(#clip0)">
<path opacity="0.1" d="M0.821867 373.153C0.8056 388.894 2.70963 404.578 6.49167 419.858C7.76409 425.007 9.24227 430.048 10.9264 434.983C12.9869 441.074 15.3748 447.049 18.0797 452.882C19.443 455.833 20.8839 458.726 22.4022 461.559C22.3773 477.701 25.7006 493.673 32.1619 508.465C43.8418 535.005 64.6692 556.464 90.8482 568.932C107.216 576.741 125.104 580.848 143.239 580.961H766.062C793.772 581.02 821.004 573.74 844.989 559.862L845.358 559.653C848.774 557.654 852.105 555.536 855.35 553.302C862.652 548.258 869.512 542.602 875.856 536.397C884.443 528.005 892.009 518.63 898.399 508.465C913.405 484.638 921.354 457.047 921.326 428.888C936.523 402.223 945.385 370.282 945.385 335.959C945.385 292.654 931.302 253.15 908.166 223.245C903.343 216.998 898.059 211.119 892.36 205.659C886.736 200.255 880.692 195.308 874.284 190.863C869.157 187.303 863.799 184.088 858.245 181.239C855.928 180.061 853.602 178.946 851.236 177.911C849.159 176.989 847.058 176.131 844.933 175.321C842.383 174.353 839.8 173.463 837.186 172.651C834.572 171.838 831.992 171.127 829.447 170.517C825.705 169.603 821.898 168.86 818.028 168.288C814.82 167.815 811.612 167.486 808.404 167.237C805.854 167.045 803.28 166.941 800.69 166.909H799.286C796.431 166.909 793.592 167.021 790.778 167.213C790.481 166.62 790.16 166.019 789.863 165.433C788.741 163.292 787.578 161.159 786.407 159.074C786.41 159.055 786.41 159.036 786.407 159.018C786.207 158.649 786.006 158.288 785.798 157.935C784.851 156.227 783.865 154.535 782.854 152.859C782.389 152.057 781.932 151.303 781.459 150.549C781.359 150.362 781.249 150.18 781.13 150.004C780.649 149.202 780.16 148.4 779.663 147.598C777.187 143.642 774.613 139.755 771.94 135.938L771.258 134.959C770.841 134.366 770.456 133.788 769.991 133.195C768.885 131.647 767.746 130.091 766.599 128.568C765.797 127.477 764.995 126.394 764.129 125.36C762.044 122.687 759.905 120.014 757.713 117.341C755.521 114.667 753.244 112.029 750.881 109.425C750.56 109.064 750.239 108.712 749.902 108.359L746.478 104.622C746.31 104.445 746.165 104.285 746.005 104.124C745.596 103.683 745.203 103.242 744.762 102.817C742.926 100.869 741.041 98.9599 739.148 97.0593C729.517 87.466 719.256 78.5259 708.434 70.2984C708.009 69.9616 707.576 69.6408 707.151 69.3201C705.114 67.7883 703.045 66.2727 700.976 64.781C689.595 56.6168 677.699 49.1967 665.361 42.5672C664.511 42.078 663.645 41.6209 662.771 41.1718C651.71 35.3201 640.335 30.0835 628.697 25.4858C622.353 22.9757 615.865 20.618 609.338 18.4607C604.991 17.0333 600.628 15.678 596.21 14.4029C589.302 12.4141 582.347 10.6311 575.343 9.05392C554.71 4.42417 533.719 1.56421 512.599 0.505184C506.183 0.179059 499.696 0.0106532 493.136 -3.94154e-05C461.483 -0.0419442 429.954 3.94638 399.308 11.8687C398.991 12.3476 398.558 12.7379 398.049 13.0031C397.54 13.2682 396.971 13.3995 396.397 13.3844H393.703C392.532 13.7052 391.369 14.026 390.198 14.3628C383.66 16.2447 377.215 18.3003 370.863 20.5297L369.259 21.1071C353.583 26.6814 338.331 33.3818 323.621 41.1558C310.361 48.1467 297.594 56.0348 285.408 64.765C283.532 66.1123 281.682 67.4702 279.859 68.8389C277.645 67.4221 275.394 66.0642 273.106 64.765C264.27 59.7323 254.884 55.7311 245.134 52.8401C224.751 46.808 203.183 45.9645 182.39 50.3861C155.726 56.0399 131.587 70.0739 112.092 90.0343C104.154 98.2012 97.088 107.173 91.0086 116.803C90.5676 117.493 90.1265 118.191 89.7015 118.896C84.4765 127.42 79.9854 136.373 76.2769 145.657C76.1406 146.002 76.0042 146.323 75.8839 146.66C72.4602 155.354 69.6991 164.294 67.6239 173.404C67.5277 173.87 67.4154 174.327 67.3192 174.792C65.3783 183.609 64.0598 192.551 63.3736 201.553C63.3736 201.873 63.3736 202.202 63.3094 202.539C62.9726 207.196 62.8015 211.9 62.7962 216.653C62.7962 220.904 62.9405 225.122 63.2052 229.308C63.2052 229.765 63.2693 230.238 63.3094 230.711C63.3816 231.922 63.4858 233.117 63.5901 234.336C57.4654 239.277 51.733 244.685 46.4445 250.511C44.1082 253.062 41.8467 255.708 39.6601 258.451C32.9997 266.798 27.146 275.759 22.1777 285.212C8.61677 310.81 0.821867 340.923 0.821867 373.153Z" fill="#38607A" fill-opacity="0.5"/>
<path opacity="0.1" d="M91.4414 565.964C91.4414 571.442 110.311 576.574 143.239 580.985H766.061C793.772 581.044 821.004 573.764 844.989 559.886L845.358 559.677C835.895 556.229 818.813 553.013 795.565 550.11L794.523 549.982C784.097 548.707 772.445 547.496 759.71 546.349C759.389 546.349 759.061 546.301 758.74 546.261C748.635 545.363 737.887 544.52 726.494 543.735C726.133 543.735 725.78 543.67 725.419 543.654C721.024 543.339 716.539 543.04 711.962 542.756L710.198 542.644C676.877 540.575 639.001 538.923 597.926 537.832H597.878C592.125 537.672 586.311 537.53 580.435 537.407C573.902 537.252 567.289 537.116 560.595 536.998C555.487 536.886 550.314 536.806 545.126 536.726H545.005C521.597 536.373 497.41 536.196 472.678 536.196C411.522 536.196 353.718 537.311 302.497 539.316H302.353C294.478 539.621 286.747 539.957 279.209 540.302L272.793 540.607C264.287 541.013 256.001 541.449 247.933 541.914C153.063 547.311 91.4414 556.076 91.4414 565.964Z" fill="#38607A"/>
<g opacity="0.2">
<path opacity="0.2" d="M399.822 532.515C399.848 533.38 399.947 534.241 400.119 535.09C405.7 534.202 411.314 533.4 416.959 532.684C416.959 532.459 416.959 532.227 416.959 531.994C416.907 529.589 416.215 527.242 414.955 525.194C413.303 522.579 410.793 520.943 408.026 521.031C405.259 521.12 402.861 522.908 401.378 525.611C400.256 527.733 399.719 530.116 399.822 532.515V532.515Z" fill="#3F3D56"/>
<path opacity="0.2" d="M399.361 518.812C399.165 512.61 402.846 507.461 407.583 507.311C412.32 507.161 416.318 512.068 416.514 518.269C416.71 524.471 413.029 529.62 408.293 529.77C403.556 529.92 399.557 525.014 399.361 518.812Z" fill="#3F3D56"/>
<path opacity="0.2" d="M398.924 505.082C398.728 498.88 402.408 493.731 407.145 493.581C411.882 493.432 415.881 498.338 416.077 504.54C416.273 510.742 412.592 515.891 407.855 516.041C403.118 516.19 399.119 511.284 398.924 505.082Z" fill="#3F3D56"/>
<path opacity="0.2" d="M398.494 491.352C398.298 485.15 401.979 480.001 406.715 479.852C411.452 479.702 415.451 484.608 415.647 490.81C415.843 497.012 412.162 502.161 407.425 502.311C402.688 502.461 398.69 497.554 398.494 491.352Z" fill="#3F3D56"/>
<path opacity="0.2" d="M398.064 477.623C397.868 471.421 401.549 466.272 406.286 466.122C411.022 465.972 415.021 470.879 415.217 477.081C415.413 483.282 411.732 488.432 406.996 488.581C402.259 488.731 398.26 483.825 398.064 477.623Z" fill="#3F3D56"/>
<path opacity="0.2" d="M435.828 382.359C436.958 380.83 437.976 379.222 438.876 377.548L416.213 374.556L440.608 373.971C442.785 368.807 443.886 363.254 443.843 357.65C443.8 352.046 442.615 346.51 440.359 341.38L408.185 359.384L437.657 336.255C434.684 331.447 430.751 327.303 426.105 324.083C421.458 320.862 416.197 318.634 410.651 317.538C405.105 316.442 399.392 316.502 393.87 317.713C388.348 318.923 383.135 321.26 378.556 324.576C373.977 327.893 370.132 332.117 367.259 336.987C364.387 341.856 362.549 347.265 361.861 352.877C361.173 358.488 361.649 364.181 363.26 369.6C364.871 375.019 367.582 380.048 371.224 384.372C369.467 386.751 367.975 389.313 366.773 392.015L396.517 406.289L364.977 396.802C362.99 403.356 362.67 410.302 364.045 417.011C365.42 423.72 368.447 429.979 372.852 435.223C368.272 441.436 365.534 448.813 364.95 456.509C364.365 464.205 365.959 471.91 369.547 478.743C373.136 485.576 378.575 491.261 385.242 495.149C391.91 499.036 399.537 500.969 407.251 500.726C414.966 500.482 422.456 498.073 428.865 493.773C435.275 489.474 440.345 483.457 443.496 476.411C446.647 469.366 447.751 461.575 446.683 453.932C445.615 446.288 442.418 439.099 437.456 433.187C442.927 425.762 445.743 416.713 445.452 407.495C445.162 398.277 441.78 389.424 435.852 382.359H435.828Z" fill="#38607A"/>
<path opacity="0.1" d="M363.229 410.091C363.51 419.314 366.901 428.171 372.852 435.223C368.273 441.436 365.535 448.813 364.95 456.509C364.366 464.205 365.959 471.91 369.548 478.743C373.136 485.576 378.575 491.261 385.243 495.149C391.911 499.036 399.538 500.969 407.252 500.726C414.966 500.482 422.457 498.073 428.866 493.773C435.276 489.474 440.346 483.457 443.497 476.411C446.648 469.366 447.752 461.576 446.684 453.932C445.616 446.288 442.419 439.099 437.457 433.187C442.726 426.025 363.085 405.479 363.229 410.091Z" fill="black"/>
</g>
<g opacity="0.2">
<path opacity="0.2" d="M521.717 532.515C521.743 533.38 521.842 534.241 522.014 535.09C527.595 534.202 533.209 533.4 538.855 532.684C538.855 532.459 538.855 532.227 538.855 531.994C538.802 529.589 538.11 527.242 536.85 525.194C535.198 522.579 532.688 520.943 529.921 521.031C527.154 521.12 524.757 522.908 523.273 525.611C522.151 527.733 521.614 530.116 521.717 532.515V532.515Z" fill="#3F3D56"/>
<path opacity="0.2" d="M521.265 518.815C521.07 512.613 524.75 507.464 529.487 507.314C534.224 507.165 538.223 512.071 538.419 518.273C538.615 524.475 534.934 529.624 530.197 529.774C525.46 529.923 521.461 525.017 521.265 518.815Z" fill="#3F3D56"/>
<path opacity="0.2" d="M520.828 505.085C520.632 498.883 524.313 493.734 529.049 493.585C533.786 493.435 537.785 498.341 537.981 504.543C538.177 510.745 534.496 515.894 529.759 516.044C525.022 516.194 521.024 511.287 520.828 505.085Z" fill="#3F3D56"/>
<path opacity="0.2" d="M520.398 491.356C520.202 485.154 523.883 480.005 528.62 479.855C533.357 479.705 537.355 484.612 537.551 490.814C537.747 497.016 534.066 502.165 529.33 502.314C524.593 502.464 520.594 497.558 520.398 491.356Z" fill="#3F3D56"/>
<path opacity="0.2" d="M519.969 477.626C519.773 471.424 523.454 466.275 528.19 466.125C532.927 465.976 536.926 470.882 537.122 477.084C537.318 483.286 533.637 488.435 528.9 488.585C524.164 488.734 520.165 483.828 519.969 477.626Z" fill="#3F3D56"/>
<path opacity="0.2" d="M557.724 382.359C558.854 380.83 559.872 379.222 560.772 377.548L538.109 374.556L562.504 373.971C564.681 368.807 565.782 363.254 565.739 357.65C565.696 352.046 564.511 346.51 562.255 341.38L530.081 359.384L559.553 336.255C556.58 331.447 552.647 327.303 548.001 324.083C543.354 320.862 538.094 318.634 532.547 317.538C527.001 316.442 521.288 316.502 515.766 317.713C510.244 318.923 505.031 321.26 500.452 324.576C495.873 327.893 492.028 332.117 489.155 336.987C486.283 341.856 484.445 347.265 483.757 352.877C483.069 358.488 483.545 364.181 485.156 369.6C486.767 375.019 489.478 380.048 493.12 384.372C491.363 386.751 489.871 389.313 488.669 392.015L518.413 406.289L486.873 396.802C484.886 403.356 484.566 410.302 485.941 417.011C487.316 423.72 490.343 429.979 494.748 435.223C490.169 441.436 487.43 448.813 486.846 456.509C486.261 464.205 487.855 471.91 491.443 478.743C495.032 485.576 500.471 491.261 507.138 495.149C513.806 499.036 521.433 500.969 529.147 500.726C536.862 500.482 544.352 498.073 550.761 493.773C557.171 489.474 562.241 483.457 565.392 476.411C568.543 469.366 569.648 461.575 568.58 453.932C567.512 446.288 564.314 439.099 559.352 433.187C564.823 425.762 567.639 416.713 567.349 407.495C567.058 398.277 563.677 389.424 557.749 382.359H557.724Z" fill="#38607A"/>
<path opacity="0.1" d="M485.125 410.091C485.405 419.314 488.797 428.171 494.748 435.223C490.169 441.436 487.43 448.813 486.846 456.509C486.262 464.205 487.855 471.91 491.443 478.743C495.032 485.576 500.471 491.261 507.139 495.149C513.806 499.036 521.433 500.969 529.148 500.726C536.862 500.482 544.352 498.073 550.762 493.773C557.171 489.474 562.241 483.457 565.392 476.411C568.543 469.366 569.648 461.576 568.58 453.932C567.512 446.288 564.314 439.099 559.353 433.187C564.621 426.025 484.98 405.479 485.125 410.091Z" fill="black"/>
</g>
<g opacity="0.2">
<path opacity="0.2" d="M188.75 541.289C188.811 542.927 189.007 544.558 189.335 546.165C200.081 544.448 210.905 542.914 221.806 541.561C221.806 541.128 221.806 540.687 221.806 540.238C221.704 535.607 220.37 531.087 217.941 527.142C214.733 522.114 209.921 518.963 204.604 519.123C199.287 519.283 194.66 522.74 191.773 527.944C189.596 532.044 188.552 536.651 188.75 541.289V541.289Z" fill="#3F3D56"/>
<path opacity="0.2" d="M187.877 514.886C187.5 502.942 194.59 493.026 203.714 492.738C212.837 492.45 220.54 501.898 220.917 513.842C221.294 525.785 214.204 535.701 205.081 535.989C195.957 536.278 188.255 526.829 187.877 514.886Z" fill="#3F3D56"/>
<path opacity="0.2" d="M187.044 488.453C186.666 476.51 193.757 466.594 202.88 466.305C212.004 466.017 219.706 475.466 220.083 487.409C220.461 499.353 213.371 509.269 204.247 509.557C195.123 509.845 187.421 500.397 187.044 488.453Z" fill="#3F3D56"/>
<path opacity="0.2" d="M186.202 462.021C185.825 450.078 192.915 440.162 202.039 439.873C211.162 439.585 218.864 449.033 219.242 460.977C219.619 472.92 212.529 482.836 203.405 483.125C194.282 483.413 186.58 473.965 186.202 462.021Z" fill="#3F3D56"/>
<path opacity="0.2" d="M186.309 434.386C185.95 422.436 193.059 412.527 202.188 412.253C211.316 411.98 219.006 421.445 219.365 433.394C219.723 445.344 212.614 455.253 203.486 455.526C194.358 455.8 186.667 446.335 186.309 434.386Z" fill="#3F3D56"/>
<path opacity="0.2" d="M258.078 252.22C260.242 249.276 262.2 246.186 263.94 242.973L220.314 237.215L267.268 236.084C271.462 226.144 273.584 215.453 273.504 204.664C273.424 193.876 271.144 183.217 266.803 173.34L204.853 207.992L261.582 163.468C255.846 154.233 248.27 146.278 239.325 140.1C230.38 133.921 220.258 129.651 209.59 127.555C198.922 125.46 187.937 125.584 177.32 127.92C166.702 130.256 156.679 134.754 147.876 141.133C139.073 147.512 131.678 155.636 126.152 164.999C120.626 174.361 117.088 184.761 115.757 195.551C114.427 206.341 115.333 217.289 118.42 227.713C121.506 238.138 126.706 247.815 133.696 256.141C130.318 260.724 127.443 265.658 125.123 270.857L182.39 298.355L121.675 280.071C117.849 292.673 117.226 306.031 119.862 318.934C122.499 331.837 128.312 343.88 136.776 353.97C127.962 365.931 122.692 380.131 121.568 394.946C120.444 409.761 123.512 424.594 130.42 437.747C137.329 450.901 147.8 461.845 160.636 469.328C173.471 476.811 188.153 480.531 203.004 480.063C217.854 479.595 232.273 474.957 244.612 466.681C256.95 458.404 266.711 446.822 272.777 433.259C278.844 419.696 280.971 404.7 278.916 389.985C276.861 375.27 270.707 361.431 261.157 350.049C271.684 335.755 277.102 318.34 276.544 300.597C275.985 282.855 269.482 265.815 258.078 252.212V252.22Z" fill="#38607A"/>
<path opacity="0.1" d="M118.299 305.597C118.825 323.343 125.324 340.393 136.744 353.986C127.93 365.947 122.66 380.147 121.536 394.962C120.412 409.777 123.48 424.61 130.389 437.763C137.297 450.917 147.768 461.861 160.604 469.344C173.439 476.827 188.122 480.547 202.972 480.079C217.822 479.611 232.241 474.973 244.579 466.697C256.918 458.42 266.679 446.838 272.745 433.275C278.812 419.712 280.939 404.716 278.884 390.001C276.829 375.287 270.675 361.447 261.125 350.065C271.342 336.264 118.018 296.72 118.299 305.597Z" fill="black"/>
</g>
<path d="M818.806 542.7L810.393 542.676H798.532L783.536 299.061L635.024 51.2361L641.48 44.3073V26.7607L802.093 293.319L818.806 542.7Z" fill="#F1C0C0"/>
<path opacity="0.1" d="M809.495 542.676H798.533L783.536 299.061L635.024 51.2363L641.48 44.3075L794.667 295.348L809.495 542.676Z" fill="black"/>
<path d="M843.594 544.729L458.78 574.176L458.452 574.201L86.0366 551.297L85.7559 551.281V535.555L496.111 528.025L838.469 527.696H840.971L841.244 529.46L843.594 544.729Z" fill="#F1C0C0"/>
<path opacity="0.1" d="M843.594 544.729L458.78 574.176L458.452 574.201L86.0366 551.297L85.7559 550.992V535.884H86.0847L458.78 548.33L838.469 527.696H838.525L839.199 528.137L841.244 529.46L843.594 544.729Z" fill="black"/>
<path opacity="0.1" d="M843.594 544.729L458.78 574.176V548.33L839.199 528.137L841.244 529.46L843.594 544.729Z" fill="black"/>
<path d="M641.528 43.9786L471.877 226.068L477.121 546.365L462.71 548.105L462.47 548.137H448.059L446.335 239.822L128.66 345.935L123.303 534.873L111.707 536.172L107.778 536.613L116.872 332.831L448.957 216.244L631.047 26.9453H641.528V43.9786Z" fill="#F1C0C0"/>
<path opacity="0.1" d="M447.642 233.927L446.334 239.822L128.66 345.935L123.303 534.873L111.707 536.172L120.801 342.005L447.642 233.927Z" fill="black"/>
<path opacity="0.1" d="M641.528 43.9786L471.877 226.068L477.121 546.365L462.71 548.105L458.781 215.587L641.528 26.9453V43.9786Z" fill="black"/>
<path d="M447.024 362.471L330.51 385.415L330.47 385.423L126.399 425.624L117.056 421.879L117.088 421.221L117.698 408.19L446.904 341.668L447.024 362.471Z" fill="#F1C0C0"/>
<path opacity="0.1" d="M330.469 385.423L126.398 425.624L117.056 421.879L117.088 421.221L330.469 385.423Z" fill="black"/>
<path d="M322.667 281.13L319.515 454.622L317.887 543.63L303.54 543.149L294.51 542.844L297.317 283.64L303.54 281.571L304.903 281.13H322.667Z" fill="#F1C0C0"/>
<path opacity="0.1" d="M322.538 281.09V281.13L319.515 454.622L317.887 543.63L303.54 543.149V281.09H322.538Z" fill="black"/>
<path d="M547.395 325.437C546.554 325.895 545.749 326.418 544.989 327.001C544.091 327.787 543.284 328.673 542.584 329.639C539.143 334.09 535.968 339.263 536.304 344.876C536.297 345.693 536.451 346.503 536.758 347.26C537.065 348.017 537.519 348.706 538.093 349.287C539.512 350.498 541.549 350.554 543.41 350.554C545.43 350.554 547.556 350.554 549.304 349.512C551.052 348.469 552.512 346.44 554.581 346.488C554.873 346.537 555.171 346.537 555.463 346.488C556.177 346.256 556.321 345.317 556.786 344.724C557.588 343.657 559.28 343.922 560.539 344.387C561.798 344.852 563.194 345.55 564.437 345.013C565.158 344.632 565.748 344.042 566.129 343.321C569.104 338.509 569.737 332.727 570.299 327.137C570.644 323.737 573.274 312.141 566.016 314.779C562.809 315.934 559.809 318.244 556.89 319.936L547.395 325.437Z" fill="#3F3D56"/>
<path d="M554.565 326.584C553.917 327.05 553.131 327.286 552.333 327.254C551.535 327.222 550.771 326.924 550.162 326.407C548.968 325.328 548.207 323.852 548.021 322.253C547.219 322.005 546.81 323.055 546.297 323.697C545.399 324.788 543.57 324.772 542.752 325.934C542.183 326.736 542.311 327.851 541.91 328.757C541.389 329.928 540.098 330.537 539.216 331.484C538.383 332.518 537.781 333.718 537.451 335.004L536.136 338.95C535.507 340.591 535.102 342.309 534.933 344.058C534.85 344.933 534.942 345.815 535.204 346.653C535.465 347.492 535.891 348.27 536.457 348.942C538.221 350.843 541.116 351.043 543.674 350.987C544.529 351.005 545.382 350.905 546.209 350.69C548.478 349.985 549.93 347.699 550.531 345.398C551.132 343.096 551.068 340.682 551.421 338.324C551.802 336.008 552.476 333.75 553.426 331.604C554.132 329.936 556.072 327.45 556.04 325.678C555.463 325.678 555.046 326.207 554.565 326.584Z" fill="#3F3D56"/>
<path d="M551.686 318.46C552.061 317.322 552.279 316.137 552.336 314.94C552.336 312.534 551.237 310.273 550.13 308.123L559.296 309.366C560.403 309.519 561.638 309.743 562.264 310.665C562.501 311.122 562.625 311.63 562.625 312.145C562.625 312.66 562.501 313.168 562.264 313.625C561.804 314.54 561.439 315.499 561.173 316.488C561.152 317.353 561.053 318.214 560.876 319.062C560.591 319.684 560.191 320.247 559.697 320.722C557.075 323.625 555.11 327.049 553.154 330.441C553.21 330.345 547.628 326.023 547.853 324.611C547.981 323.809 549.593 322.847 550.106 322.077C550.815 320.96 551.348 319.74 551.686 318.46V318.46Z" fill="#BE6F72"/>
<path d="M473.095 287.128V295.027L608.359 321.411L615.376 325.662H639.587V321.211L506.688 289.101L473.095 287.128Z" fill="#F1C0C0"/>
<path opacity="0.1" d="M473.095 295.027L608.359 321.411L615.376 325.662H639.587L505.702 297.008L473.095 295.027Z" fill="black"/>
<path d="M581.694 511.368C583.202 509.543 585.282 508.282 587.597 507.789C589.912 507.297 592.326 507.603 594.445 508.657C594.899 508.871 595.299 509.183 595.616 509.572C596.418 510.694 595.905 512.242 595.833 513.63C595.648 517.014 598.343 519.764 600.765 522.13C602.064 523.397 603.387 524.753 603.972 526.477C604.558 528.201 604.125 530.39 602.553 531.288C601.867 531.632 601.121 531.839 600.356 531.898C597.792 532.398 595.164 532.471 592.577 532.114C590.019 531.625 587.509 530.174 586.402 527.816C586.188 527.177 585.835 526.593 585.367 526.108C583.956 524.993 581.791 526.3 580.187 525.506C578.864 524.849 578.807 523.814 578.791 522.451C578.743 518.682 579.305 514.415 581.694 511.368Z" fill="#38607A"/>
<path d="M562.448 511.224C561.461 513.822 561.325 516.653 561.197 519.428C561.125 521.032 561.076 522.748 561.943 524.103C562.809 525.458 564.501 526.172 566.121 526.509C569.465 527.199 573.338 526.549 575.495 523.895C577.147 521.866 577.492 519.083 577.188 516.452C576.931 514.295 576.386 511.769 577.933 510.237C578.334 509.828 578.856 509.54 579.224 509.099C580.026 508.12 579.898 506.645 579.465 505.442C578.901 504.291 578.478 503.077 578.206 501.825C578.142 501.232 567.348 502.242 566.353 502.731C564.998 503.397 565.206 504.512 564.797 505.859C564.228 507.735 563.137 509.427 562.448 511.224Z" fill="#38607A"/>
<path d="M560.467 396.016C558.35 397.388 557.532 400.082 557.203 402.584C556.297 409.441 557.885 416.37 558.005 423.291C558.117 432.986 555.311 442.858 557.708 452.249C559.144 457.862 557.925 464.278 559.272 469.948C559.673 471.632 560.411 473.22 560.796 474.904C561.598 478.553 560.756 482.37 559.625 485.938C559.264 486.9 559.035 487.906 558.943 488.93C558.998 490.505 559.398 492.049 560.114 493.453L564.926 504.832C565.463 506.107 567.58 506.316 568.936 506.484C571.486 506.789 574.333 507.006 576.362 505.426C578.391 503.846 578.88 501.199 579.193 498.729C579.792 493.988 580.06 489.21 579.994 484.431C579.906 483.184 580.017 481.93 580.323 480.718C580.764 479.346 581.735 478.16 581.999 476.708C582.336 474.832 581.382 472.987 581.029 471.094C580.787 469.366 580.814 467.61 581.109 465.89C581.422 463.324 581.783 460.757 582.192 458.207C582.769 454.639 581.943 451.118 581.39 447.541C580.869 444.181 581.534 440.757 582.192 437.421C582.135 440.128 582.473 442.83 583.194 445.44C583.619 446.715 584.229 447.934 584.598 449.233C586.242 455.064 582.737 461.182 583.234 467.221C583.467 470.044 584.574 472.835 584.261 475.617C584.044 477.654 583.098 479.523 582.448 481.464C581.799 483.404 581.462 485.626 582.448 487.438C585.055 492.362 583.106 499.058 580.772 504.11C580.299 505.007 579.886 505.934 579.537 506.885C578.848 509.163 579.425 511.609 579.241 513.982C579.912 514.092 580.6 514.048 581.252 513.852C581.904 513.656 582.502 513.314 583.002 512.852C583.355 512.483 583.643 512.05 583.988 511.665C584.952 510.747 586.092 510.034 587.34 509.572C588.073 509.162 588.908 508.97 589.746 509.018C590.627 509.265 591.42 509.757 592.032 510.438C592.825 511.135 593.666 511.776 594.55 512.355C594.926 512.644 595.366 512.839 595.833 512.924C596.068 512.96 596.308 512.922 596.52 512.814C596.731 512.706 596.903 512.534 597.012 512.322C597.062 512.189 597.092 512.048 597.1 511.905C597.398 509.484 597.556 507.047 597.573 504.608C597.573 500.414 602.593 497.527 603.227 493.38C603.732 490.036 602.794 486.628 603.107 483.26C603.259 481.528 603.74 479.828 603.708 478.095C603.708 476.973 603.451 475.874 603.363 474.759C603.29 473.522 603.308 472.281 603.419 471.046L603.668 467.173C603.908 463.348 604.173 459.442 605.681 455.946C607.469 451.863 608.527 447.499 608.808 443.05C608.969 440.244 608.864 437.437 609.185 434.622C609.474 432.08 610.116 429.554 609.931 427.003C609.779 425.031 609.129 423.122 608.977 421.149C608.664 417.356 610.108 413.667 611.238 410.034C612.369 406.402 613.203 402.376 611.719 398.871C611.507 398.296 611.154 397.783 610.693 397.38C610.124 397.003 609.477 396.762 608.8 396.674C595.041 393.784 580.938 392.884 566.923 394.003C564.638 394.133 562.421 394.824 560.467 396.016Z" fill="#3F3D56"/>
<path d="M605.993 310.842C598.898 310.842 593.146 305.09 593.146 297.995C593.146 290.899 598.898 285.147 605.993 285.147C613.089 285.147 618.841 290.899 618.841 297.995C618.841 305.09 613.089 310.842 605.993 310.842Z" fill="#BE6F72"/>
<path d="M608.48 314.042C608.295 314.776 608.295 315.545 608.48 316.279C608.682 316.792 608.966 317.269 609.322 317.69C610.565 319.295 611.941 320.791 613.436 322.165C612.674 323.865 611.304 325.219 609.594 325.958C607.897 326.681 606.116 327.19 604.293 327.474C603.384 327.713 602.437 327.779 601.503 327.667C600.642 327.45 599.827 327.081 599.097 326.576L591.959 322.302C590.883 321.718 589.885 320.999 588.992 320.16C587.683 318.815 586.942 317.017 586.923 315.14C586.89 314.804 586.981 314.467 587.18 314.194C587.453 313.956 587.797 313.812 588.158 313.785C590.668 313.232 592.649 311.195 593.772 308.885C594.787 306.518 595.444 304.012 595.721 301.451L603.331 305.461C604.462 306.062 605.585 306.664 606.755 307.185C607.501 307.522 609.009 307.802 609.538 308.484C610.549 309.743 608.744 312.526 608.48 314.042Z" fill="#BE6F72"/>
<path d="M613.388 319.831C614.471 320.72 615.317 321.863 615.85 323.16C616.347 324.763 615.85 326.456 615.4 328.043C613.296 334.811 611.688 341.724 610.589 348.726C609.915 353.537 609.667 358.421 609.338 363.289C608.664 373.217 607.686 389.047 606.379 398.911C601.567 399.128 596.876 397.724 592.104 397.211C583.186 396.265 574.004 398.43 565.271 396.409C567.388 388.045 569.505 373.762 571.622 365.406C572.559 362.114 573.209 358.746 573.563 355.342C573.747 352.896 573.635 350.442 573.603 347.98C573.531 343.168 573.796 338.356 574.06 333.545C574.365 327.931 574.67 322.318 576.001 316.824C576.094 316.124 576.422 315.477 576.931 314.988C577.733 314.402 578.776 314.611 579.73 314.739C582.652 315.11 585.609 314.409 588.054 312.766C589.113 312.045 590.532 311.162 591.519 311.964C591.94 312.448 592.217 313.04 592.321 313.673C592.757 314.807 593.431 315.835 594.296 316.689C595.162 317.542 596.2 318.201 597.341 318.621C599.626 319.448 602.019 319.94 604.446 320.08C605.189 320.24 605.963 320.152 606.651 319.831C607.79 319.134 607.87 316.624 609.306 316.455C610.565 316.311 612.538 319.022 613.388 319.831Z" fill="#3F3D56"/>
<path d="M594.414 339.415C597.373 336.584 598.672 332.478 600.829 328.99C602.298 326.644 604.175 324.58 606.371 322.895C607.474 322.166 608.487 321.307 609.386 320.337C610.148 319.398 610.725 318.147 611.88 317.787C612.357 317.683 612.852 317.696 613.323 317.826C613.794 317.956 614.226 318.198 614.582 318.532C615.289 319.206 615.959 319.918 616.587 320.665C619.988 324.186 625.962 324.675 628.657 328.749C629.384 329.613 629.878 330.648 630.092 331.756C630.868 337.686 629.335 343.686 625.81 348.517C625.127 349.637 624.079 350.487 622.842 350.923C623.01 352.418 622.812 353.932 622.265 355.334C620.78 360.409 618.956 365.379 616.804 370.21C617.318 372.099 617.678 374.028 617.878 375.976C618.44 380.876 617.919 385.848 618.448 390.755C618.881 394.765 620.052 398.671 620.092 402.688C620.092 403.33 620.036 404.092 619.482 404.421C619.188 404.572 618.858 404.641 618.528 404.621L608.664 404.918C602.938 405.086 597.156 405.255 591.519 404.196C590.768 404.085 590.04 403.855 589.361 403.514C587.453 402.448 586.819 400.042 586.514 397.901C586.116 395.123 585.958 392.317 586.041 389.512C584.846 393.29 583.427 397.195 579.818 398.831C577.909 399.697 575.728 399.633 573.635 399.577C569.124 399.376 564.628 398.913 560.17 398.189C559.896 398.224 559.617 398.193 559.356 398.1C559.096 398.007 558.86 397.854 558.669 397.654C558.478 397.453 558.337 397.211 558.256 396.946C558.176 396.681 558.159 396.401 558.206 396.128L558.158 391.75C558.061 382.856 560.267 374.356 561.125 365.502C561.397 362.711 561.373 359.889 562.055 357.154C562.336 356.007 562.745 354.884 562.993 353.73C563.207 352.599 563.341 351.455 563.394 350.305L564.02 341.484C564.317 337.402 564.742 333.465 565.054 329.391C565.226 325.424 565.801 321.485 566.77 317.634C567.468 315.228 568.92 312.502 571.43 312.205C572.769 312.053 574.068 312.638 575.343 313.047C578.477 314.034 581.841 314.02 584.967 313.007C585.932 312.626 586.939 312.357 587.966 312.205C588.483 312.135 589.009 312.203 589.491 312.403C589.973 312.603 590.393 312.928 590.709 313.344C591.02 313.97 591.166 314.666 591.134 315.365C591.51 323.376 592.208 331.628 594.414 339.415Z" fill="#38607A"/>
<path d="M607.317 339.656C611.014 335.758 614.807 331.789 619.571 329.311C621.447 328.332 623.58 327.594 625.657 327.963C627.734 328.332 629.667 330.137 629.571 332.246C629.507 333.553 628.713 334.708 628.464 335.991C628.175 337.434 628.592 338.974 628.143 340.369C627.778 341.289 627.233 342.126 626.539 342.831L620.862 349.56C618.456 352.366 616.05 355.213 612.954 357.154C609.859 359.095 605.849 360.001 602.449 358.622C600.03 357.497 598.018 355.651 596.691 353.337C595.28 351.091 594.285 348.637 592.962 346.32C590.903 342.617 588.185 339.32 584.943 336.592C586.611 336.159 588.704 335.55 589.754 334.186C590.053 333.753 590.308 333.291 590.516 332.807L591.815 330C592.257 329.977 592.699 330.046 593.113 330.202C593.527 330.358 593.904 330.598 594.221 330.906C594.778 331.55 595.375 332.158 596.009 332.727C597.14 333.577 598.672 333.809 599.698 334.78C600.095 335.196 600.455 335.647 600.773 336.127C601.549 337.148 602.535 337.99 603.663 338.599C604.792 339.207 606.038 339.568 607.317 339.656V339.656Z" fill="#3F3D56"/>
<path d="M584.646 322.887C581.863 317.811 581.991 311.724 581.197 305.99C581.111 304.472 580.579 303.012 579.666 301.796C578.062 299.984 575.231 299.959 572.809 300.192C572.095 300.272 571.205 300.609 571.245 301.323C571.302 301.579 571.426 301.814 571.606 302.004C573.954 305.034 575.334 308.7 575.568 312.526C574.309 313.4 572.36 311.604 571.149 312.526C570.347 313.2 570.716 314.531 571.197 315.493C572.315 317.723 573.467 319.936 574.654 322.133C575.601 324.07 576.837 325.852 578.318 327.418C579.337 328.396 580.532 329.166 581.566 330.129C583.972 332.382 585.424 335.566 587.91 337.763C588.12 337.991 588.404 338.136 588.712 338.172C589.028 338.15 589.326 338.016 589.554 337.795C590.796 336.785 591.826 335.54 592.585 334.13C593.531 332.382 593.387 331.869 591.895 330.634C589.105 328.429 586.386 326.063 584.646 322.887Z" fill="#BE6F72"/>
<path d="M611.968 336.207C611.487 336.504 610.893 336.841 610.364 336.592C610.148 336.461 609.964 336.283 609.827 336.071C608.91 334.848 608.145 333.517 607.549 332.109C607.447 331.911 607.389 331.691 607.381 331.468C607.381 330.955 607.838 330.578 608.263 330.281C610.54 328.829 612.989 327.666 615.553 326.817C617.67 326.015 619.883 325.317 622.129 325.517C622.972 325.574 623.796 325.801 624.55 326.184C625.304 326.567 625.972 327.099 626.515 327.747C628.119 329.808 625.433 330.433 623.749 331.179C619.851 332.951 615.633 333.978 611.968 336.207Z" fill="#38607A"/>
<path opacity="0.1" d="M614.494 349.84C614.521 350.023 614.505 350.21 614.446 350.386C614.388 350.561 614.289 350.721 614.157 350.851C613.925 349.712 614.229 348.509 613.989 347.362C613.636 345.638 611.96 344.339 611.816 342.607C614.887 342.005 614.47 347.98 614.494 349.84Z" fill="black"/>
<path opacity="0.2" d="M473.095 287.128V295.027L505.702 297.008L506.688 289.101L473.095 287.128Z" fill="black"/>
<path d="M617.558 299.903C615.521 298.243 616.699 294.763 615.32 292.533C614.518 291.314 613.163 290.673 611.832 290.128C610.225 289.376 608.504 288.899 606.739 288.716C605.856 288.631 604.964 288.747 604.131 289.053C603.298 289.36 602.545 289.851 601.928 290.488C601.406 291.082 601.054 291.804 600.564 292.421C599.959 293.142 599.169 293.684 598.279 293.992C597.39 294.3 596.434 294.361 595.512 294.169C594.446 293.929 593.339 293.119 593.411 292.028C593.531 291.365 593.87 290.761 594.373 290.312L596.667 287.77C599.273 284.883 602.168 281.819 605.994 281.098C608.656 280.592 611.383 281.306 613.949 282.164C614.983 282.509 616.146 283.022 616.435 284.073C616.627 284.795 616.339 285.581 616.507 286.31C616.836 287.762 618.696 288.251 619.562 289.47C620.429 290.689 620.164 292.132 620.412 293.48C620.661 294.827 621.383 296.142 621.471 297.538C621.527 298.38 621.102 299.943 620.156 300.248C619.21 300.553 618.143 298.901 617.558 299.903Z" fill="#3F3D56"/>
<path d="M594.189 290.873C594.865 287.345 596.323 284.013 598.455 281.122C600.351 278.42 602.989 276.326 606.05 275.091C607.58 274.493 609.225 274.25 610.863 274.379C612.5 274.508 614.087 275.007 615.504 275.837C617.608 277.339 619.246 279.404 620.228 281.795C622.305 286.27 623.075 291.739 620.661 296.038C619.699 294.867 618.047 295.396 616.587 294.971C614.759 294.45 613.211 293.231 611.471 292.469C606.218 290.152 599.802 292.028 594.189 290.873Z" fill="#FED253"/>
<path opacity="0.1" d="M619.434 290.625C619.619 289.181 619.739 287.505 618.712 286.479C618.661 286.416 618.596 286.366 618.523 286.332C618.449 286.299 618.368 286.283 618.287 286.286C618.216 286.31 618.15 286.347 618.093 286.397C618.037 286.446 617.991 286.507 617.959 286.575C617.366 287.51 616.861 288.498 616.451 289.526C617.049 289.388 617.674 289.433 618.246 289.655C618.818 289.876 619.31 290.265 619.659 290.769" fill="black"/>
<path opacity="0.1" d="M600.693 286.551L600.981 283.688C601.028 283.452 601.009 283.208 600.925 282.982C600.804 282.793 600.618 282.656 600.401 282.597C600.185 282.538 599.955 282.561 599.754 282.661C599.36 282.88 599.035 283.205 598.816 283.6C598.149 284.624 597.595 285.719 597.164 286.864C598.456 286.615 599.784 286.631 601.07 286.912" fill="black"/>
<path opacity="0.1" d="M593.515 402.745V409.289L599.04 409.658H628.103V402.745H593.515Z" fill="black"/>
<path d="M593.515 402.745V409.657H628.103L719.99 294.554V289.117H700.727L593.515 402.745Z" fill="#F1C0C0"/>
<path opacity="0.1" d="M593.515 402.745V409.657H628.103L719.99 294.554V289.117H700.727L593.515 402.745Z" fill="black"/>
<path opacity="0.1" d="M593.515 402.745V409.657H628.103L719.99 294.554V289.117L627.606 402.745H593.515Z" fill="black"/>
<path d="M707.945 518.113C707.884 518.438 707.891 518.772 707.966 519.094C708.041 519.417 708.181 519.72 708.378 519.986C708.575 520.252 708.825 520.474 709.112 520.639C709.399 520.803 709.717 520.907 710.046 520.943C712.275 521.697 714.641 522.443 716.221 524.151C717.8 525.859 718.113 529.027 716.221 530.414C715.253 530.998 714.142 531.3 713.013 531.288C709.38 531.537 705.595 531.489 702.299 529.949C699.941 528.859 697.72 526.998 695.129 527.166C693.79 527.247 692.363 527.872 691.168 527.263C689.973 526.653 689.636 524.953 689.628 523.534C689.598 520.57 690.044 517.622 690.951 514.8C691.072 514.416 696.172 514.119 696.781 513.999L702.964 513.197C704.135 513.044 706.661 512.162 707.584 513.14C708.506 514.119 707.945 516.95 707.945 518.113Z" fill="#38607A"/>
<path d="M671.047 498.096C670.786 499.54 670.36 500.95 669.78 502.298C668.922 504.479 667.823 506.797 665.722 507.856C663.814 508.81 661.472 508.465 659.531 507.559C658.721 507.223 658.012 506.685 657.47 505.995C656.844 504.904 656.565 503.648 656.668 502.394C656.668 499.291 656.853 496.083 658.272 493.324C659.491 490.918 661.616 488.849 661.649 486.187L668.954 487.598C669.345 487.636 669.718 487.783 670.029 488.023C670.26 488.267 670.421 488.569 670.494 488.898C671.274 491.899 671.462 495.023 671.047 498.096V498.096Z" fill="#38607A"/>
<path d="M758.291 421.911C758.595 424.493 758.467 427.26 757.12 429.489C755.773 431.719 752.934 433.194 750.48 432.304C750.354 432.272 750.236 432.215 750.133 432.137C750.029 432.058 749.943 431.96 749.878 431.847C749.813 431.576 749.85 431.291 749.982 431.045C751.066 428.154 750.977 424.954 749.734 422.128C749.573 421.759 749.229 421.326 748.852 421.47C748.694 421.55 748.567 421.68 748.491 421.839C748.103 422.511 747.908 423.277 747.929 424.052C748.043 424.755 748.064 425.469 747.994 426.177C747.841 426.867 747.103 427.517 746.462 427.22C746.276 427.106 746.116 426.956 745.991 426.778C745.865 426.6 745.777 426.398 745.732 426.185C743.944 421.013 744.754 415.359 745.572 409.946C745.565 409.822 745.585 409.698 745.632 409.582C745.678 409.467 745.75 409.363 745.841 409.278C745.932 409.193 746.04 409.129 746.159 409.091C746.277 409.052 746.403 409.04 746.526 409.056C750.311 408.679 752.38 407.773 754.546 411.293C756.406 414.261 758.291 418.342 758.291 421.911Z" fill="#38607A"/>
<path d="M714.039 408.751C715.162 413.419 716.293 418.142 716.365 422.938C716.345 425.925 716.12 428.907 715.691 431.863L714.849 438.808C714.561 441.15 714.28 443.483 713.871 445.801C713.61 446.995 713.468 448.212 713.446 449.434C713.525 450.639 713.715 451.833 714.015 453.003C714.52 455.458 714.802 457.954 714.857 460.461C714.946 464.47 714.448 468.48 714.136 472.49C713.511 480.48 713.605 488.51 714.416 496.484C714.74 498.636 714.273 500.833 713.101 502.667C712.626 503.245 712.234 503.888 711.938 504.576C711.337 506.412 712.74 508.249 713.101 510.133C713.332 511.603 712.97 513.104 712.095 514.307C711.22 515.509 709.903 516.316 708.434 516.549C702.018 517.31 695.426 516.966 689.644 519.901C689.035 518.12 690.366 516.1 689.757 514.287C689.372 513.164 688.313 512.435 687.591 511.488C686.622 510.047 686.138 508.332 686.212 506.596C686.184 504.331 686.586 502.08 687.399 499.964C688.081 498.2 689.059 496.46 689.003 494.567C689.003 493.637 688.674 492.659 689.051 491.801C689.309 491.308 689.661 490.869 690.085 490.509C692.482 487.884 693.955 484.547 694.28 481.006C694.592 477.493 694.479 473.955 693.943 470.469C693.55 467.149 693.02 463.644 690.911 461.054C691.889 453.2 691.315 445.23 689.219 437.597C689.011 436.891 688.682 436.073 687.96 435.905C687.674 435.876 687.384 435.916 687.116 436.022C686.848 436.128 686.609 436.297 686.421 436.515C685.161 437.693 684.56 439.402 684.015 441.037C683.413 442.81 682.804 444.702 683.261 446.515C683.453 447.317 683.838 448.022 684.063 448.792C684.551 450.339 684.465 452.01 683.822 453.5C683.509 454.044 683.312 454.648 683.245 455.272C683.319 455.808 683.482 456.329 683.726 456.812C684.023 457.761 684.118 458.762 684.003 459.75C683.889 460.737 683.567 461.69 683.06 462.546C682.038 464.249 680.777 465.796 679.315 467.141C680.014 470.219 679.833 473.431 678.794 476.411C678.719 476.546 678.671 476.693 678.653 476.846C678.635 476.999 678.648 477.154 678.69 477.301C678.834 477.606 679.203 477.718 679.492 477.935C680.294 478.593 679.796 479.836 679.259 480.694C677.787 483.049 676.16 485.305 674.391 487.446C672.787 489.363 672.932 493.06 670.542 493.749C669.538 493.966 668.499 493.966 667.495 493.749C665.137 493.388 662.507 492.707 661.352 490.622C660.879 489.764 660.686 488.721 659.948 488.08C659.211 487.438 658.256 487.326 657.847 486.556C657.438 485.786 657.895 484.776 657.759 483.885C657.623 482.995 656.845 482.282 656.596 481.343C656.003 479.178 658.529 477.398 658.874 475.184C659.371 471.977 655.329 469.571 655.498 466.363C655.85 459.394 656.075 452.393 656.436 445.424C656.889 439.182 656.953 432.917 656.628 426.667C656.348 422.777 655.826 418.703 657.254 415.087C659.307 409.986 664.968 407.123 670.446 406.578C675.923 406.033 681.384 407.332 686.813 408.182C695.824 409.571 704.979 409.762 714.039 408.751V408.751Z" fill="#3F3D56"/>
<path d="M697.76 332.101C690.665 332.101 684.913 326.349 684.913 319.254C684.913 312.159 690.665 306.407 697.76 306.407C704.855 306.407 710.607 312.159 710.607 319.254C710.607 326.349 704.855 332.101 697.76 332.101Z" fill="#FBBEBE"/>
<path d="M702.989 334.499C703.425 335.515 704.159 336.376 705.094 336.967C706.028 337.558 707.12 337.852 708.225 337.811C708.691 339.736 707.576 341.677 706.301 343.192C703.653 346.273 700.231 348.593 696.389 349.911C692.546 351.229 688.421 351.498 684.44 350.691C682.89 350.413 681.42 349.8 680.133 348.894C678.398 347.445 677.233 345.428 676.845 343.2C676.476 340.989 676.371 338.741 676.533 336.504C676.488 336.062 676.614 335.62 676.885 335.269C677.206 335.021 677.603 334.89 678.008 334.9C680.719 334.66 683.55 334.555 685.931 333.224C688.313 331.893 690.005 328.886 688.858 326.416C689.043 326.801 693.726 326.985 694.344 327.065C696.276 327.338 698.209 327.643 700.134 327.995C701.059 328.046 701.973 328.219 702.852 328.509C704.015 329.11 703.582 328.813 703.309 329.904C702.9 331.572 702.299 332.767 702.989 334.499Z" fill="#FBBEBE"/>
<path d="M693.213 342.31C694.943 342.33 696.669 342.139 698.353 341.741C700.053 341.344 701.552 340.344 702.571 338.926C703.165 338.028 703.55 336.897 704.496 336.392C706.044 335.59 707.808 336.945 709.043 338.188C710.168 339.414 711.471 340.463 712.908 341.3C714.625 342.206 716.629 342.527 718.249 343.593C719.515 344.549 720.601 345.722 721.457 347.058L732.821 362.535C737.384 368.758 741.353 375.438 745.419 382.006C748.94 387.692 750.784 394.236 753.439 400.371C753.649 400.746 753.736 401.178 753.687 401.606C753.591 402.023 753.086 402.36 752.733 402.119C753.928 403.306 752.877 405.327 753.158 406.995C753.477 408.162 754.143 409.205 755.067 409.986C753.302 409.756 751.51 409.84 749.774 410.235C747.98 410.743 746.287 411.557 744.77 412.641C743.799 412.488 743.888 410.764 743.166 410.123C742.733 409.746 742.091 409.794 741.522 409.682C739.381 409.264 738.531 406.69 736.887 405.239C735.515 404.028 733.575 403.635 732.123 402.496C729.765 400.644 729.26 397.348 728.025 394.613C726.975 392.295 725.323 390.274 724.4 387.901C723.799 386.361 723.51 384.693 722.652 383.273C721.281 380.98 718.698 379.761 716.236 378.662C714.681 377.965 713.029 377.243 711.353 377.355C711.441 381.084 711.914 384.757 711.104 388.398C710.823 389.681 710.43 390.932 710.094 392.207C708.562 397.949 708.201 403.932 708.129 409.85C704.444 409.007 700.681 408.555 696.902 408.503C693.926 408.414 690.959 408.799 687.984 408.743C684.455 408.679 680.967 407.997 677.438 407.757C673.91 407.516 670.221 407.757 667.101 409.361C667.355 404.278 667.213 399.184 666.676 394.124L665.826 386.152C665.634 383.837 665.278 381.537 664.76 379.272C664.295 377.443 663.621 375.679 663.108 373.859C661.303 367.443 661.632 360.594 661.977 353.914C662.153 350.482 663.477 347.106 665.032 344.05C665.595 342.915 666.239 341.822 666.957 340.778C668.837 338.188 671.342 336.116 674.24 334.756C677.137 333.396 680.331 332.791 683.525 333C683.933 333.012 684.335 333.099 684.712 333.256C685.389 333.69 685.918 334.319 686.228 335.061C687.887 338.043 690.294 340.541 693.213 342.31Z" fill="#3F3D56"/>
<path d="M709.059 323.513C708.698 322.711 707.728 322.414 707.135 321.772C705.996 320.553 706.509 318.605 706.333 316.961C706.044 314.555 704.047 312.542 701.762 311.684C699.431 310.936 696.951 310.779 694.544 311.227C693.386 311.311 692.267 311.683 691.288 312.309C690.871 312.614 690.486 313.007 690.093 313.288C689.377 313.721 688.52 313.857 687.705 313.666C686.89 313.476 686.181 312.975 685.731 312.269C688.57 308.853 691.713 305.244 696.028 304.194C697.508 303.892 699.016 303.749 700.527 303.769C702.523 303.729 704.584 303.696 706.429 304.458C708.939 305.493 710.703 307.875 711.609 310.441C712.402 313.042 712.826 315.741 712.869 318.46C713.033 320.274 713.033 322.099 712.869 323.914C712.559 326.391 711.638 328.752 710.19 330.786C709.994 331.102 709.717 331.36 709.388 331.532C705.731 333.136 709.356 324.178 709.059 323.513Z" fill="#3F3D56"/>
<path d="M686.148 310.288C686.589 306.511 689.283 303.392 692.146 300.882C694.454 298.705 697.203 297.05 700.206 296.03C703.229 295.14 706.71 295.332 709.3 297.136C711.385 298.588 712.708 300.898 713.727 303.223C715.065 305.968 715.727 308.992 715.659 312.045C715.459 315.076 713.983 318.147 711.353 319.679C710.407 318.284 708.763 317.562 707.183 316.993C700.297 314.38 693.275 312.142 686.148 310.288V310.288Z" fill="#FED253"/>
<path opacity="0.1" d="M710.471 308.717C710.214 308.717 710.046 308.981 709.917 309.198C709.265 310.215 708.704 311.289 708.241 312.406C709.18 312.606 710.792 312.831 711.257 312.005C711.505 311.588 711.209 308.677 710.471 308.717Z" fill="black"/>
<path opacity="0.1" d="M692.195 306.904C692.387 307.089 692.612 306.712 692.612 306.439V303.328C692.617 303.241 692.597 303.155 692.555 303.079C692.522 303.041 692.482 303.01 692.436 302.988C692.391 302.966 692.341 302.953 692.291 302.951C691.641 302.879 691.104 303.432 690.687 303.961C690.054 304.819 689.504 305.735 689.043 306.696L692.435 306.592" fill="black"/>
<path d="M649.86 358.429C649.122 357.729 648.334 357.083 647.503 356.496C645.281 355.013 642.595 354.427 640.101 353.481C637.607 352.535 635.072 351.003 634.102 348.517C633.616 346.963 633.458 345.324 633.637 343.705C633.614 343.028 633.734 342.353 633.99 341.725C634.295 341.17 634.73 340.696 635.257 340.345C638.641 337.843 643.18 337.643 647.382 337.899C656.647 338.474 665.728 340.741 674.175 344.588C674.622 344.735 675.013 345.015 675.298 345.389C675.462 345.737 675.537 346.12 675.514 346.504C675.664 348.869 675.356 351.241 674.608 353.489C673.502 356.344 671.224 358.646 670.27 361.557C669.837 362.864 669.692 364.251 669.315 365.566C669.006 366.925 668.203 368.119 667.062 368.919C663.894 370.811 660.903 368.269 658.706 366.296L649.86 358.429Z" fill="#3F3D56"/>
<path d="M691.345 369.536L695.411 360.667C696.007 359.437 696.521 358.17 696.95 356.873C697.415 355.326 697.64 353.722 698.073 352.166C699.501 346.985 703.101 342.671 704.857 337.595C704.969 337.136 705.195 336.714 705.515 336.368C705.771 336.186 706.064 336.064 706.374 336.008C706.683 335.953 707 335.966 707.303 336.047C709.757 336.472 711.674 338.34 713.919 339.399C714.962 339.88 716.085 340.201 717.127 340.754C717.648 341.001 718.11 341.357 718.481 341.799C718.852 342.24 719.123 342.757 719.276 343.312C719.525 344.539 718.916 345.718 718.402 346.913C716.221 351.837 715.724 357.339 715.628 362.728C715.555 366.352 715.74 370.242 717.881 373.153C721.995 378.766 719.365 387.01 717.825 393.803C717.64 394.605 717.424 395.471 717.296 396.321C717.16 397.385 717.098 398.457 717.111 399.529C717.111 403.13 717.312 406.843 718.819 410.106C717.331 410.898 715.69 411.363 714.008 411.47C709.351 412.063 704.676 412.48 699.982 412.721C698.511 412.859 697.028 412.783 695.579 412.496C693.858 412.031 692.341 411.006 691.268 409.583C690.195 408.16 689.627 406.42 689.653 404.637C689.396 406.859 688.923 409.272 687.311 410.812C685.699 412.352 683.349 412.584 681.16 412.705C674.981 413.032 668.786 412.858 662.635 412.184C662.243 412.166 661.857 412.076 661.496 411.919C660.309 411.325 660.245 409.689 660.342 408.374C660.518 405.912 660.702 403.45 660.999 401.004C661.251 399.445 661.379 397.868 661.384 396.289C661.262 394.664 660.993 393.054 660.582 391.477C659.508 386.473 658.657 381.365 659.018 376.24C659.161 374.992 659.212 373.735 659.171 372.479C658.962 369.648 657.471 366.954 657.751 364.139C658.553 355.863 659.203 347.37 661.512 339.383C661.929 337.956 662.459 336.424 663.702 335.606C665.306 334.531 667.559 335.093 669.395 334.411C670.257 334.01 671.077 333.524 671.841 332.959C673.503 331.92 675.408 331.334 677.367 331.259C678.842 331.203 680.486 331.532 681.377 332.719C681.789 333.387 682.062 334.132 682.178 334.908C683.341 339.8 684.705 344.636 686.068 349.471L687.375 354.107L690.88 366.553C691.224 367.876 690.992 368.285 691.345 369.536Z" fill="#38607A"/>
<path d="M670.839 320.979L593.267 402.496V409.409H627.855L686.148 333.328" fill="#F1C0C0"/>
<path opacity="0.1" d="M670.839 320.979L593.267 402.496V409.409H627.855L686.148 333.328" fill="black"/>
<path opacity="0.1" d="M684.913 332.254L684.664 332.342L627.357 402.496H593.267V409.409H627.855L686.148 333.328L684.913 332.254Z" fill="black"/>
<path d="M675.987 333.97C678.794 335.197 681.913 336.769 682.755 339.72C682.922 340.238 682.957 340.789 682.86 341.324C682.654 341.953 682.263 342.505 681.738 342.907C681.212 343.31 680.577 343.543 679.916 343.577C678.596 343.609 677.283 343.369 676.059 342.871L659.499 337.402C659.05 337.258 658.537 337.041 658.424 336.6C658.396 336.323 658.451 336.043 658.585 335.798C659.098 334.547 659.603 331.989 660.678 331.115C661.56 330.409 663.308 330.658 664.375 330.674C668.481 330.706 672.338 332.366 675.987 333.97Z" fill="#38607A"/>
<path d="M661.224 338.052C658.434 338.043 655.66 338.474 653.004 339.327C650.335 340.193 647.972 341.807 646.195 343.978C645.678 344.585 645.31 345.304 645.121 346.079C644.96 346.881 642.346 347.362 642.923 347.908C641.167 347.627 641.584 348.453 639.804 348.437C638.023 348.421 636.099 347.964 635.032 346.544C634.291 345.378 633.961 343.998 634.094 342.623C634.07 341.671 634.251 340.725 634.623 339.848C635.425 338.164 637.269 337.258 638.97 336.48L653.292 329.928C654.123 329.486 655.015 329.17 655.939 328.99C656.716 328.916 657.499 328.935 658.272 329.046L664.76 329.792C663.341 330.71 662.186 331.982 661.409 333.482C660.631 334.983 660.258 336.66 660.325 338.348" fill="#3F3D56"/>
</g>
<defs>
<clipPath id="clip0">
<rect width="944.546" height="580.985" fill="white" transform="matrix(-1 0 0 1 945.369 0)"/>
</clipPath>
</defs>
</svg>
