<svg width="182" height="98" viewBox="0 0 182 98" fill="none" xmlns="http://www.w3.org/2000/svg">
<path d="M81.5787 46.7679H14.4634V51.1867H81.5787V46.7679Z" fill="#38607A"/>
<path d="M35.3666 21.7936L27.8642 29.3262L27.1822 28.6415C27.0011 28.4596 26.7559 28.3579 26.5001 28.3579L23.772 28.3579C23.5163 28.3579 23.2712 28.4595 23.09 28.6415L20.523 31.2188L16.6466 32.5162L16.6497 32.5254C16.5114 32.5714 16.3797 32.6397 16.2696 32.7502L1.94685 47.1307C0.442195 48.6413 0.442259 51.0982 1.94685 52.6088L6.03907 56.7175C7.54366 58.2282 9.99074 58.2283 11.4954 56.7175L14.0737 54.1289L21.4435 65.2279L21.4435 67.84C21.4429 68.8598 21.8552 69.8582 22.5732 70.5791L27.8642 75.8915C29.3688 77.4021 31.8159 77.4022 33.3205 75.8915L41.505 67.6741C43.0096 66.1634 43.0096 63.7065 41.505 62.1958L36.6315 57.3026C35.5911 56.2581 34.0778 55.8996 32.6831 56.3664L28.8946 57.6343L25.0968 52.6483L25.8181 51.924C26.1551 51.5856 26.1951 51.0507 25.9127 50.6654L23.5855 47.4916C23.419 47.2642 23.1619 47.1211 22.8821 47.0997C22.601 47.0783 22.3253 47.1813 22.1268 47.3806L21.5362 47.9736L20.9588 47.2157L25.818 42.337C25.9281 42.2265 25.9961 42.0941 26.0419 41.9554L26.0512 41.9585L27.3433 38.0664L29.9102 35.4892C30.0914 35.3073 30.1927 35.0612 30.1927 34.8044L30.1927 32.0653C30.1927 31.8085 30.0915 31.5624 29.9102 31.3805L29.2282 30.6957L36.7306 23.1631C37.1076 22.7846 37.1076 22.172 36.7306 21.7935C36.3536 21.415 35.7436 21.4151 35.3666 21.7936ZM13.5414 49.1849L9.44923 53.2936C9.07223 53.6722 8.46211 53.6722 8.08511 53.2936C7.70812 52.9151 7.70812 52.3025 8.08511 51.924L12.1773 47.8153C12.5543 47.4368 13.1644 47.4368 13.5414 47.8153C13.9184 48.1939 13.9184 48.8064 13.5414 49.1849ZM10.8133 46.4458L6.72106 50.5545C6.34407 50.933 5.73394 50.933 5.35695 50.5545C4.98008 50.176 4.98008 49.5634 5.35701 49.1849L9.44923 45.0762C9.82622 44.6977 10.4363 44.6977 10.8133 45.0762C11.1903 45.4547 11.1903 46.0673 10.8133 46.4458Z" fill="#38607A"/>
<path d="M61.0709 21.7936L68.5733 29.3262L69.2553 28.6415C69.4364 28.4596 69.6816 28.3579 69.9374 28.3579L72.6655 28.3579C72.9212 28.3579 73.1663 28.4595 73.3475 28.6415L75.9145 31.2188L79.7909 32.5162L79.7878 32.5254C79.9261 32.5714 80.0578 32.6397 80.1679 32.7502L94.4906 47.1307C95.9953 48.6413 95.9952 51.0982 94.4906 52.6088L90.3984 56.7175C88.8938 58.2282 86.4468 58.2283 84.9421 56.7175L82.3638 54.1289L74.994 65.2279L74.994 67.84C74.9946 68.8598 74.5823 69.8582 73.8643 70.5791L68.5733 75.8915C67.0687 77.4021 64.6216 77.4022 63.117 75.8915L54.9325 67.6741C53.4279 66.1634 53.4279 63.7065 54.9325 62.1958L59.806 57.3026C60.8464 56.2581 62.3597 55.8996 63.7544 56.3664L67.5429 57.6343L71.3407 52.6483L70.6194 51.924C70.2824 51.5856 70.2424 51.0507 70.5248 50.6654L72.852 47.4916C73.0185 47.2642 73.2756 47.1211 73.5554 47.0997C73.8365 47.0783 74.1122 47.1813 74.3107 47.3806L74.9013 47.9736L75.4787 47.2157L70.6195 42.337C70.5094 42.2265 70.4414 42.0941 70.3956 41.9554L70.3863 41.9585L69.0942 38.0664L66.5273 35.4892C66.3461 35.3073 66.2448 35.0612 66.2448 34.8044L66.2448 32.0653C66.2448 31.8085 66.346 31.5624 66.5273 31.3805L67.2093 30.6957L59.7069 23.1631C59.3299 22.7846 59.3299 22.172 59.7069 21.7935C60.0839 21.415 60.6939 21.4151 61.0709 21.7936ZM82.8961 49.1849L86.9883 53.2936C87.3653 53.6722 87.9754 53.6722 88.3524 53.2936C88.7294 52.9151 88.7294 52.3025 88.3524 51.924L84.2602 47.8153C83.8832 47.4368 83.2731 47.4368 82.8961 47.8153C82.5191 48.1939 82.5191 48.8064 82.8961 49.1849ZM85.6242 46.4458L89.7164 50.5545C90.0934 50.933 90.7036 50.933 91.0806 50.5545C91.4574 50.176 91.4574 49.5634 91.0805 49.1849L86.9883 45.0762C86.6113 44.6977 86.0012 44.6977 85.6242 45.0762C85.2472 45.4547 85.2472 46.0673 85.6242 46.4458Z" fill="#38607A"/>
<path d="M36.3908 45.026C36.2754 44.3588 36.2144 43.697 36.2144 43.0503C36.2144 36.5141 41.5109 31.1962 48.0209 31.1962C54.5309 31.1962 59.8275 36.5141 59.8275 43.0503C59.8275 43.697 59.7665 44.3588 59.651 45.026H63.763V43.3018L64.8839 42.7394L62.9162 38.1295L64.0942 37.5381L60.8146 32.9282L61.7165 32.4751L57.6505 30.1425L58.2178 29.0025L52.9705 27.6854L53.5188 26.5863H48.0209V25.6096L43.7752 27.4365L43.1862 26.2537L38.5947 29.5465L38.1435 28.641L35.8202 32.7234L34.6848 32.1537L33.373 37.4222L32.2789 36.8717V42.3917H31.3062L32.4304 45.026H36.3908Z" fill="#009BFF"/>
<path d="M48.0208 37.7815C45.1275 37.7815 42.7734 40.1451 42.7734 43.05C42.7734 43.7322 42.9118 44.3934 43.1696 45.0257H52.8726C53.1297 44.3934 53.2681 43.7322 53.2681 43.05C53.2681 40.1451 50.914 37.7815 48.0208 37.7815Z" fill="#38607A"/>
<path d="M58.3165 45.026C58.4464 44.3562 58.5153 43.6937 58.5153 43.0503C58.5153 37.2405 53.8071 32.5133 48.0206 32.5133C42.2341 32.5133 37.5259 37.2405 37.5259 43.0503C37.5259 43.6937 37.5948 44.3562 37.7246 45.026H41.7762C41.5736 44.3871 41.4614 43.7279 41.4614 43.0503C41.4614 39.419 44.4038 36.4647 48.0206 36.4647C51.6373 36.4647 54.5798 39.419 54.5798 43.0503C54.5798 43.7273 54.4676 44.3871 54.2649 45.026H58.3165Z" fill="#2C85BF"/>
<path d="M117.807 54.6813H107.529V64.5098H107.03V37.5687H117.807C119.37 37.5687 120.634 37.7517 121.598 38.1175C122.596 38.4501 123.361 38.9158 123.893 39.5145C124.426 40.1132 124.791 40.8283 124.991 41.6598C125.191 42.4913 125.29 43.3893 125.29 44.3539V48.0458C125.29 49.0104 125.191 49.9084 124.991 50.7399C124.791 51.5382 124.426 52.2367 123.893 52.8353C123.361 53.4008 122.596 53.8498 121.598 54.1824C120.634 54.515 119.37 54.6813 117.807 54.6813ZM107.529 54.1824H117.807C119.27 54.1824 120.451 54.0327 121.349 53.7334C122.28 53.434 122.995 53.0183 123.494 52.4861C123.993 51.9207 124.326 51.2721 124.492 50.5404C124.692 49.7754 124.791 48.9439 124.791 48.0458V44.3539C124.791 43.4559 124.692 42.6243 124.492 41.8593C124.326 41.0943 123.993 40.4291 123.494 39.8637C122.995 39.2983 122.28 38.8659 121.349 38.5665C120.451 38.2339 119.27 38.0676 117.807 38.0676H107.529V54.1824ZM143.034 49.792C143.632 49.792 144.065 49.659 144.331 49.3929C144.597 49.1268 145.013 48.5614 145.578 47.6966L151.665 38.4169C151.864 38.0843 152.08 37.8681 152.313 37.7683C152.579 37.6352 152.845 37.5687 153.112 37.5687H153.96C154.425 37.5687 154.758 37.7018 154.957 37.9679C155.19 38.2007 155.307 38.5832 155.307 39.1153V64.5098H154.808V39.1153C154.808 38.8493 154.741 38.6164 154.608 38.4169C154.508 38.184 154.292 38.0676 153.96 38.0676H153.211C152.978 38.0676 152.779 38.1009 152.613 38.1674C152.446 38.2339 152.263 38.4335 152.064 38.7661L145.977 47.946C145.378 48.8441 144.913 49.4594 144.58 49.792C144.281 50.1246 143.765 50.2909 143.034 50.2909C142.302 50.2909 141.77 50.1246 141.437 49.792C141.138 49.4594 140.689 48.8441 140.09 47.946L134.003 38.7661C133.804 38.4335 133.604 38.2339 133.405 38.1674C133.238 38.1009 133.039 38.0676 132.806 38.0676H132.058C131.725 38.0676 131.509 38.184 131.409 38.4169C131.309 38.6164 131.259 38.8493 131.259 39.1153V64.5098H130.76V39.1153C130.76 38.5832 130.86 38.2007 131.06 37.9679C131.293 37.7018 131.625 37.5687 132.058 37.5687H132.906C133.172 37.5687 133.438 37.6352 133.704 37.7683C133.97 37.8681 134.203 38.0843 134.402 38.4169L140.489 47.6966C141.055 48.5614 141.47 49.1268 141.736 49.3929C142.002 49.659 142.435 49.792 143.034 49.792ZM174.197 54.6813H163.92V64.5098H163.421V37.5687H174.197C175.76 37.5687 177.024 37.7517 177.989 38.1175C178.987 38.4501 179.752 38.9158 180.284 39.5145C180.816 40.1132 181.182 40.8283 181.381 41.6598C181.581 42.4913 181.681 43.3893 181.681 44.3539V48.0458C181.681 49.0104 181.581 49.9084 181.381 50.7399C181.182 51.5382 180.816 52.2367 180.284 52.8353C179.752 53.4008 178.987 53.8498 177.989 54.1824C177.024 54.515 175.76 54.6813 174.197 54.6813ZM163.92 54.1824H174.197C175.661 54.1824 176.841 54.0327 177.739 53.7334C178.671 53.434 179.386 53.0183 179.885 52.4861C180.384 51.9207 180.716 51.2721 180.882 50.5404C181.082 49.7754 181.182 48.9439 181.182 48.0458V44.3539C181.182 43.4559 181.082 42.6243 180.882 41.8593C180.716 41.0943 180.384 40.4291 179.885 39.8637C179.386 39.2983 178.671 38.8659 177.739 38.5665C176.841 38.2339 175.661 38.0676 174.197 38.0676H163.92V54.1824Z" fill="#38607A"/>
</svg>
