<svg width="497" height="497" viewBox="0 0 497 497" fill="none" xmlns="http://www.w3.org/2000/svg">
<g clip-path="url(#clip0)">
<path d="M482.416 26.315L168.48 332.419L62.08 210.819C59.19 207.477 54.138 207.11 50.796 210C47.454 212.89 47.0869 217.942 49.9769 221.284C49.9949 221.305 50.013 221.326 50.032 221.347L162.032 349.347C163.474 350.979 165.52 351.953 167.696 352.043H168.016C170.108 352.047 172.118 351.231 173.616 349.771L493.616 37.771C496.779 34.678 496.837 29.606 493.744 26.443C490.651 23.28 485.58 23.222 482.416 26.315Z" fill="url(#paint0_linear)"/>
<path d="M240.016 488.043C372.648 487.959 480.1 380.371 480.016 247.739C479.997 217.949 474.436 188.423 463.616 160.667C462.006 156.551 457.364 154.521 453.248 156.131C449.132 157.741 447.102 162.383 448.712 166.499C493.693 281.658 436.801 411.477 321.642 456.458C206.483 501.439 76.6641 444.547 31.6831 329.388C-13.2979 214.229 43.5941 84.409 158.753 39.429C214.996 17.461 277.729 19.145 332.712 44.099C336.774 45.838 341.476 43.955 343.215 39.893C344.899 35.96 343.19 31.398 339.336 29.539C218.66 -25.291 76.3841 28.089 21.5551 148.765C-33.2739 269.441 20.1051 411.717 140.782 466.546C171.948 480.707 205.783 488.037 240.016 488.043Z" fill="url(#paint1_linear)"/>
</g>
<defs>
<linearGradient id="paint0_linear" x1="272.027" y1="24.0325" x2="272.027" y2="352.043" gradientUnits="userSpaceOnUse">
<stop stop-color="#E31111" stop-opacity="0.85"/>
<stop offset="1" stop-color="#009BFF"/>
</linearGradient>
<linearGradient id="paint1_linear" x1="240.008" y1="7.98394" x2="240.008" y2="488.043" gradientUnits="userSpaceOnUse">
<stop stop-color="#E31111" stop-opacity="0.85"/>
<stop offset="1" stop-color="#009BFF"/>
</linearGradient>
<clipPath id="clip0">
<rect width="496.027" height="496.027" fill="white"/>
</clipPath>
</defs>
</svg>
